<svg id="Capa_1" enable-background="new 0 0 511.99 511.99" viewBox="0 0 511.99 511.99" xmlns="http://www.w3.org/2000/svg"><g id="XMLID_1240_"><path id="XMLID_1239_" d="m457.309 60.742-50.125 15.679 6.125 63.666-35.95-53.975-50.05 13.389 31.618-38.759-29.507-46.241 47.939 20.87 24.731-25.37 5.094 35.061z" fill="#ffcd69"/><circle id="XMLID_1006_" cx="213.309" cy="350.001" fill="#6d92ac" r="152"/><ellipse id="XMLID_1209_" cx="344.945" cy="274.001" fill="#33d6f5" rx="27" ry="27" transform="matrix(.851 -.525 .525 .851 -92.49 221.907)"/><ellipse id="XMLID_1208_" cx="81.673" cy="426.001" fill="#ff7b79" rx="27" ry="27" transform="matrix(.259 -.966 .966 .259 -350.95 394.634)"/><path id="XMLID_1188_" d="m161.632 204.655v-32.446c0-17.741 14.382-32.122 32.122-32.122h39.752c17.74 0 32.122 14.382 32.122 32.122v32.449z" fill="#8aa8bd"/><g id="XMLID_132_"><path id="XMLID_133_" d="m365.309 340.001c-5.522 0-10 4.477-10 10 0 47.87-23.889 92.211-63.901 118.614-4.609 3.042-5.881 9.245-2.839 13.854 1.923 2.913 5.108 4.493 8.356 4.493 1.89 0 3.802-.535 5.498-1.654 45.639-30.115 72.886-80.697 72.886-135.308 0-5.522-4.477-9.999-10-9.999z"/><path id="XMLID_154_" d="m211.594 491.99c-38.081-.45-74.238-16.192-100.536-43.473 2.913-3.801 5.078-8.175 6.355-12.94 2.558-9.546 1.246-19.517-3.696-28.076-10.2-17.668-32.875-23.745-50.543-13.543-17.668 10.201-23.744 32.875-13.542 50.543 4.941 8.559 12.92 14.681 22.466 17.239 3.188.854 6.422 1.277 9.637 1.277 4.494 0 8.942-.845 13.167-2.473 30.133 32.261 72.153 50.921 116.456 51.445.04.001.08.001.121.001 5.467 0 9.932-4.4 9.997-9.882.064-5.522-4.36-10.052-9.882-10.118zm-134.321-49.568c-4.386-1.175-8.052-3.988-10.322-7.921-4.687-8.118-1.896-18.536 6.222-23.223 2.67-1.542 5.589-2.274 8.472-2.274 5.879 0 11.606 3.049 14.751 8.497 4.687 8.118 1.896 18.536-6.223 23.223-3.933 2.269-8.514 2.871-12.9 1.698z"/><path id="XMLID_157_" d="m460.295 51.198-44.119-13.801-4.189-28.834c-.548-3.767-3.187-6.896-6.807-8.073-3.619-1.177-7.594-.196-10.251 2.531l-19.909 20.425-41.607-18.114c-4.034-1.754-8.741-.669-11.597 2.675-2.856 3.346-3.191 8.165-.825 11.873l22.785 35.708c-6.846 4.926-15.344 7.448-24.473 7.168-11.107-.332-21.859-4.899-29.516-12.529-.072-.072-.133-.148-.208-.22-.065-.062-.133-.112-.199-.172-14.142-13.871-34.435-17.703-53.091-9.975-20.034 8.298-32.98 27.492-32.98 48.898v41.33h-9.556c-23.226 0-42.122 18.896-42.122 42.122v28.002c-58.821 24.31-100.322 82.29-100.322 149.789 0 5.523 4.477 10 10 10s10-4.477 10-10c0-78.299 63.701-142 142-142 38.769 0 75.53 15.746 102.251 43.483-2.913 3.801-5.078 8.176-6.355 12.941-2.559 9.546-1.245 19.517 3.696 28.076 6.846 11.857 19.308 18.493 32.105 18.493 6.272 0 12.626-1.595 18.438-4.95 8.56-4.941 14.682-12.92 17.239-22.467 2.559-9.546 1.245-19.517-3.696-28.076-9.211-15.954-28.592-22.451-45.274-16.052-15.89-17.019-35.038-30.222-56.086-38.992v-28.247c0-23.226-18.896-42.122-42.122-42.122h-10.196v-41.33c0-13.288 8.099-25.228 20.633-30.42 11.364-4.707 23.195-2.472 31.648 5.98.001.001.002.002.003.003.107.107.216.211.327.312.005.005.01.008.015.012 11.203 11.027 26.758 17.623 42.769 18.102 3.304.1 6.554-.059 9.734-.45l-8.878 10.883c-2.742 3.361-3.004 8.107-.648 11.751 2.355 3.643 6.793 5.352 10.981 4.23l43.12-11.535 31.973 48.004c1.896 2.845 5.052 4.457 8.325 4.457 1.118 0 2.25-.188 3.35-.579 4.32-1.537 7.042-5.815 6.602-10.379l-5.348-55.587 42.379-13.257c4.174-1.306 7.015-5.171 7.015-9.544 0-4.372-2.84-8.238-7.014-9.543zm-100.627 214.303c4.686 8.118 1.895 18.536-6.223 23.223-8.117 4.686-18.534 1.896-23.223-6.223-4.686-8.118-1.896-18.536 6.223-23.223 2.671-1.542 5.589-2.274 8.472-2.274 5.879 0 11.605 3.049 14.751 8.497zm-104.04-93.292v21.41c-13.65-3.688-27.86-5.618-42.318-5.618-14.405 0-28.374 1.9-41.678 5.445v-21.237c0-12.198 9.924-22.122 22.122-22.122h39.752c12.198 0 22.122 9.924 22.122 22.122zm34.078-122.061c.002.002.004.005.007.007-.003-.002-.005-.004-.007-.007zm114.493 16.729c-4.515 1.412-7.422 5.793-6.969 10.501l2.309 23.994-13.856-20.804c-1.886-2.83-5.034-4.457-8.323-4.457-.858 0-1.727.111-2.584.34l-20.157 5.392 12.058-14.782c2.728-3.344 3.003-8.062.681-11.7l-11.874-18.609 17.885 7.787c3.812 1.659 8.252.787 11.153-2.189l10.587-10.861 2.181 15.01c.554 3.806 3.24 6.958 6.911 8.106l19.614 6.136z"/><path id="XMLID_161_" d="m256.053 485.847c-5.523 0-10 4.509-10 10.032s4.477 10 10 10c5.522 0 10-4.477 10-10v-.064c0-5.522-4.478-9.968-10-9.968z"/></g></g></svg>