<?xml version="1.0" encoding="utf-8"?>
<!-- Generator: Adobe Illustrator 22.0.1, SVG Export Plug-In . SVG Version: 6.00 Build 0)  -->
<svg version="1.1" id="Capa_1" xmlns="http://www.w3.org/2000/svg" xmlns:xlink="http://www.w3.org/1999/xlink" x="0px" y="0px"
	 viewBox="0 0 512 512" style="enable-background:new 0 0 512 512;" xml:space="preserve">
<style type="text/css">
	.st0{fill:#FFCD69;}
	.st1{fill:#6D92AC;}
	.st2{fill:#33D6F5;}
	.st3{fill:#FF7B79;}
	.st4{fill:#8AA8BD;}
	.st5{fill:none;stroke:#D55757;stroke-width:40;stroke-miterlimit:10;}
</style>
<g id="XMLID_1240_">
	<path id="XMLID_1239_" class="st0" d="M457.3,60.7l-50.1,15.7l6.1,63.7l-36-54l-50,13.4l31.6-38.8l-29.5-46.2l47.9,20.9L402.1,10
		l5.1,35.1L457.3,60.7z"/>
	<circle id="XMLID_1006_" class="st1" cx="213.3" cy="350" r="152"/>
	<ellipse id="XMLID_1209_" class="st2" cx="344.9" cy="274" rx="27" ry="27"/>
	<ellipse id="XMLID_1208_" class="st3" cx="81.7" cy="426.1" rx="27" ry="27"/>
	<path id="XMLID_1188_" class="st4" d="M161.6,204.7v-32.4c0-17.7,14.4-32.1,32.1-32.1h39.8c17.7,0,32.1,14.4,32.1,32.1v32.4
		L161.6,204.7z"/>
	<g id="XMLID_132_">
		<path id="XMLID_133_" d="M365.3,340c-5.5,0-10,4.5-10,10c0,47.9-23.9,92.2-63.9,118.6c-4.6,3-5.9,9.2-2.8,13.9
			c1.9,2.9,5.1,4.5,8.4,4.5c1.9,0,3.8-0.5,5.5-1.7c45.6-30.1,72.9-80.7,72.9-135.3C375.3,344.5,370.8,340,365.3,340L365.3,340z"/>
		<path id="XMLID_154_" d="M211.6,492c-38.1-0.5-74.2-16.2-100.5-43.5c2.9-3.8,5.1-8.2,6.4-12.9c2.6-9.5,1.2-19.5-3.7-28.1
			c-10.2-17.7-32.9-23.7-50.5-13.5c-17.7,10.2-23.7,32.9-13.5,50.5c4.9,8.6,12.9,14.7,22.5,17.2c3.2,0.9,6.4,1.3,9.6,1.3
			c4.5,0,8.9-0.8,13.2-2.5c30.1,32.3,72.2,50.9,116.5,51.4h0.1c5.5,0,9.9-4.4,10-9.9C221.5,496.6,217.1,492.1,211.6,492L211.6,492z
			 M77.3,442.4c-4.4-1.2-8.1-4-10.3-7.9c-4.7-8.1-1.9-18.5,6.2-23.2c2.7-1.5,5.6-2.3,8.5-2.3c5.9,0,11.6,3,14.8,8.5
			c4.7,8.1,1.9,18.5-6.2,23.2C86.2,443,81.7,443.6,77.3,442.4L77.3,442.4z"/>
		<path id="XMLID_157_" d="M460.3,51.2l-44.1-13.8L412,8.6c-0.5-3.8-3.2-6.9-6.8-8.1c-3.6-1.2-7.6-0.2-10.3,2.5L375,23.4L333.4,5.3
			c-4-1.8-8.7-0.7-11.6,2.7c-2.9,3.3-3.2,8.2-0.8,11.9l22.8,35.7c-6.8,4.9-15.3,7.4-24.5,7.2c-11.1-0.3-21.9-4.9-29.5-12.5
			c-0.1-0.1-0.1-0.1-0.2-0.2c-0.1-0.1-0.1-0.1-0.2-0.2c-14.1-13.9-34.4-17.7-53.1-10c-20,8.3-33,27.5-33,48.9v41.3h-9.6
			c-23.2,0-42.1,18.9-42.1,42.1v28C92.8,224.5,51.3,282.5,51.3,350c0,5.5,4.5,10,10,10s10-4.5,10-10c0-78.3,63.7-142,142-142
			c38.8,0,75.5,15.7,102.3,43.5c-2.9,3.8-5.1,8.2-6.4,12.9c-2.6,9.5-1.2,19.5,3.7,28.1c6.8,11.9,19.3,18.5,32.1,18.5
			c6.3,0,12.6-1.6,18.4-5c8.6-4.9,14.7-12.9,17.2-22.5c2.6-9.5,1.2-19.5-3.7-28.1c-9.2-16-28.6-22.5-45.3-16.1
			c-15.9-17-35-30.2-56.1-39v-28.2c0-23.2-18.9-42.1-42.1-42.1h-10.2V88.8c0-13.3,8.1-25.2,20.6-30.4c11.4-4.7,23.2-2.5,31.6,6l0,0
			c0.1,0.1,0.2,0.2,0.3,0.3l0,0c11.2,11,26.8,17.6,42.8,18.1c3.3,0.1,6.6-0.1,9.7-0.4l-8.9,10.9c-2.7,3.4-3,8.1-0.6,11.8
			c2.4,3.6,6.8,5.4,11,4.2L373,97.6l32,48c1.9,2.8,5.1,4.5,8.3,4.5c1.1,0,2.3-0.2,3.4-0.6c4.3-1.5,7-5.8,6.6-10.4L418,83.5
			l42.4-13.3c4.2-1.3,7-5.2,7-9.5C467.3,56.4,464.5,52.5,460.3,51.2L460.3,51.2z M359.7,265.5c4.7,8.1,1.9,18.5-6.2,23.2
			s-18.5,1.9-23.2-6.2s-1.9-18.5,6.2-23.2c2.7-1.5,5.6-2.3,8.5-2.3C350.8,257,356.5,260.1,359.7,265.5L359.7,265.5z M255.6,172.2
			v21.4c-13.6-3.7-27.9-5.6-42.3-5.6c-14.4,0-28.4,1.9-41.7,5.4v-21.2c0-12.2,9.9-22.1,22.1-22.1h39.8
			C245.7,150.1,255.6,160,255.6,172.2L255.6,172.2z M289.7,50.1C289.7,50.1,289.7,50.2,289.7,50.1C289.7,50.2,289.7,50.2,289.7,50.1
			z M404.2,66.9c-4.5,1.4-7.4,5.8-7,10.5l2.3,24l-13.9-20.8c-1.9-2.8-5-4.5-8.3-4.5c-0.9,0-1.7,0.1-2.6,0.3l-20.2,5.4L366.6,67
			c2.7-3.3,3-8.1,0.7-11.7l-11.9-18.6l17.9,7.8c3.8,1.7,8.3,0.8,11.2-2.2l10.6-10.9l2.2,15c0.6,3.8,3.2,7,6.9,8.1l19.6,6.1
			L404.2,66.9z"/>
		<path id="XMLID_161_" d="M256.1,485.8c-5.5,0-10,4.5-10,10s4.5,10,10,10s10-4.5,10-10v-0.1C266.1,490.3,261.6,485.8,256.1,485.8
			L256.1,485.8z"/>
	</g>
</g>
<line class="st5" x1="467.6" y1="44.4" x2="42.4" y2="469.6"/>
<line class="st5" x1="42.4" y1="44.4" x2="467.6" y2="469.6"/>
</svg>
