<!-- icon666.com - MILLIONS vector ICONS FREE --><svg id="Capa_1" enable-background="new 0 0 510.069 510.069" viewBox="0 0 510.069 510.069" xmlns="http://www.w3.org/2000/svg"><g><circle cx="255.034" cy="254.949" fill="#fee565" r="247.534"></circle><path d="m84.411 254.949c0-123.628 90.661-226.085 209.106-244.561-12.533-1.955-25.402-2.974-38.483-2.974-136.709 0-247.534 110.825-247.534 247.535s110.825 247.534 247.534 247.534c13.081 0 25.95-1.019 38.483-2.974-118.445-18.476-209.106-120.932-209.106-244.56z" fill="#fdd62f"></path><path d="m348.852 304.357c40.727 0 73.743-33.016 73.743-73.743v-32.791c0-6.784-5.499-12.283-12.283-12.283h-122.92c-6.784 0-12.283 5.499-12.283 12.283v32.791c0 40.727 33.016 73.743 73.743 73.743z" fill="#7a6d79"></path><path d="m320.227 230.614v-32.791c0-6.784 5.499-12.283 12.283-12.283h-45.118c-6.784 0-12.283 5.499-12.283 12.283v32.791c0 40.727 33.016 73.743 73.743 73.743 7.87 0 15.447-1.245 22.559-3.528-29.69-9.533-51.184-37.358-51.184-70.215z" fill="#685e67"></path><path d="m161.217 304.357c40.727 0 73.743-33.016 73.743-73.743v-32.791c0-6.784-5.499-12.283-12.283-12.283h-122.92c-6.784 0-12.283 5.499-12.283 12.283v32.791c0 40.727 33.016 73.743 73.743 73.743z" fill="#7a6d79"></path><path d="m136.471 230.614v-32.791c0-6.784 5.499-12.283 12.283-12.283h-48.997c-6.784 0-12.283 5.499-12.283 12.283v32.791c0 40.727 33.016 73.743 73.743 73.743 8.591 0 16.831-1.484 24.498-4.185-28.68-10.102-49.244-37.422-49.244-69.558z" fill="#685e67"></path><path d="m109.152 242.672c-7.541 15.906-19.319 27.446-34.987 34.978-1.454.699-1.4 2.762.089 3.384 16.4 6.851 28.256 18.249 35.011 34.754.613 1.497 2.747 1.522 3.397.041 7.134-16.251 19.1-27.509 35.008-34.696 1.453-.656 1.448-2.696-.007-3.347-16.02-7.163-28.042-18.526-35.156-35.047-.632-1.467-2.67-1.511-3.355-.067z" fill="#a7e6ef"></path><g><path d="m469.181 379.461c-3.515-2.192-8.141-1.118-10.333 2.395-21.185 33.972-50.771 62.362-85.56 82.103-35.868 20.353-76.76 31.11-118.255 31.11-87.86 0-168.633-47.951-210.797-125.14-1.986-3.636-6.543-4.974-10.177-2.987-3.635 1.986-4.973 6.542-2.987 10.177 44.795 82.006 130.612 132.95 223.961 132.95 44.085 0 87.537-11.434 125.657-33.064 36.955-20.969 68.382-51.126 90.885-87.211 2.193-3.515 1.121-8.142-2.394-10.333z"></path><path d="m435.371 74.698c-48.17-48.17-112.215-74.698-180.337-74.698-66.287 0-129.093 25.318-176.848 71.291-2.984 2.873-3.074 7.621-.202 10.605 2.873 2.983 7.621 3.074 10.605.202 44.946-43.269 104.057-67.098 166.445-67.098 64.116 0 124.394 24.968 169.73 70.304 21.376 21.376 38.219 46.076 50.056 72.932l-48.157 28.47c-3.564-5.226-9.562-8.665-16.351-8.665h-122.92c-10.908 0-19.783 8.875-19.783 19.783v1.091h-25.149v-1.091c0-10.908-8.875-19.783-19.783-19.783h-122.92c-6.789 0-12.787 3.439-16.351 8.665l-48.162-28.472c8.334-18.842 19.172-36.691 32.423-53.219 2.591-3.232 2.072-7.952-1.16-10.543-3.232-2.592-7.952-2.072-10.543 1.16-17.754 22.145-31.585 46.859-41.108 73.457-9.858 27.529-14.856 56.446-14.856 85.945 0 31.765 5.782 62.779 17.185 92.182 1.152 2.971 3.989 4.79 6.995 4.79.901 0 1.819-.164 2.71-.509 3.862-1.498 5.778-5.843 4.281-9.705-10.73-27.666-16.171-56.855-16.171-86.758 0-28.738 4.953-56.579 14.558-82.737l50.416 29.805v19.746c0 4.142 3.358 7.5 7.5 7.5s7.5-3.358 7.5-7.5v-24.024c0-2.637 2.146-4.783 4.783-4.783h122.92c2.637 0 4.783 2.146 4.783 4.783v32.791c0 16.78-6.288 32.785-17.705 45.065-11.357 12.216-26.738 19.657-43.308 20.951-4.129.322-7.216 3.931-6.893 8.061.307 3.931 3.591 6.917 7.469 6.917.196 0 .394-.008.592-.023 20.332-1.587 39.199-10.711 53.125-25.691 14.006-15.065 21.719-34.697 21.719-55.279v-16.7h25.149v16.7c0 44.797 36.445 81.243 81.243 81.243s81.243-36.445 81.243-81.243v-28.512l50.389-29.789c9.576 26.146 14.585 54.047 14.585 82.721 0 34.698-7.248 68.178-21.542 99.51-1.719 3.769-.058 8.217 3.711 9.936 1.009.46 2.067.679 3.108.679 2.847 0 5.569-1.63 6.828-4.389 15.192-33.3 22.895-68.875 22.895-105.736.001-68.124-26.528-132.169-74.697-180.338zm-20.276 155.916c0 36.526-29.716 66.243-66.243 66.243-36.526 0-66.243-29.716-66.243-66.243v-32.791c0-2.637 2.146-4.783 4.783-4.783h122.92c2.637 0 4.783 2.146 4.783 4.783z"></path><path d="m250.8 409.345c2.372.21 4.74.315 7.099.315 13.628 0 26.966-3.49 38.945-10.241 14.054-7.92 25.237-19.762 32.34-34.246 1.824-3.719.288-8.212-3.432-10.036-3.718-1.823-8.212-.288-10.036 3.432-11.659 23.775-37.218 38.178-63.591 35.835l-6.001-.532c-4.129-.373-7.768 2.682-8.133 6.808s2.682 7.768 6.808 8.133z"></path><path d="m102.324 318.628c1.421 3.474 4.77 5.75 8.531 5.797.04 0 .08.001.119.001 3.714 0 7.063-2.181 8.556-5.582 6.177-14.073 16.392-24.173 31.228-30.875 3.348-1.513 5.506-4.859 5.499-8.525s-2.179-7.004-5.532-8.503c-14.924-6.673-25.172-16.868-31.329-31.167-1.452-3.371-4.755-5.592-8.416-5.658-3.674-.071-7.034 2.032-8.604 5.343v.001c-6.738 14.212-17.029 24.494-31.46 31.432-3.32 1.597-5.403 5.003-5.306 8.678s2.356 6.967 5.754 8.386c14.939 6.24 25.067 16.273 30.96 30.672zm8.313-63.205c6.007 9.819 14.093 17.867 24.168 24.057-9.813 6.058-17.735 13.846-23.69 23.29-5.921-9.828-13.982-17.767-24.098-23.732 9.594-6.204 17.494-14.102 23.62-23.615z"></path></g></g></svg>