<!-- icon666.com - MILLIONS vector ICONS FREE --><svg id="Layer_1" enable-background="new 0 0 512 512" viewBox="0 0 512 512" xmlns="http://www.w3.org/2000/svg"><g><g><g><circle cx="256" cy="256" fill="#ffd93b" r="187.5"></circle><path d="m256 446c-104.77 0-190-85.23-190-190s85.23-190 190-190 190 85.23 190 190-85.23 190-190 190zm0-375c-102.01 0-185 82.99-185 185s82.99 185 185 185 185-82.99 185-185-82.99-185-185-185z" fill="#231f20"></path></g><path d="m226.55 418.5c-34.79 0-67.36-9.49-95.28-26 32.91 30.11 76.71 48.5 124.73 48.5 102.01 0 185-82.99 185-185 0-58.91-27.67-111.47-70.7-145.37 27.3 32.57 43.75 74.55 43.75 120.37 0 103.55-83.95 187.5-187.5 187.5z" fill="#f4c534"></path></g><g><g><path d="m217.43 162.64-29.28 29.28-29.28-29.28c-4.79-4.81-22.21 12.6-17.41 17.4l29.29 29.29-29.27 29.27c-4.81 4.81 12.59 22.21 17.41 17.41l29.27-29.27 29.25 29.26c4.81 4.8 22.21-12.6 17.41-17.41l-29.28-29.27 29.28-29.28c4.81-4.8-12.59-22.22-17.39-17.4z" fill="#674f27"></path><path d="m156.73 259.34c-3.82 0-8.47-3.19-11.97-6.7-4.81-4.82-9.03-11.86-5.07-15.82l27.5-27.5-27.52-27.52c-.85-.85-2.15-2.79-1.25-6.15 1.62-6.04 10.02-14.43 16.06-16.04 3.35-.9 5.29.41 6.14 1.26l27.51 27.51 27.51-27.51c.85-.86 2.79-2.16 6.15-1.26 6.03 1.61 14.43 10.01 16.04 16.04.9 3.36-.4 5.3-1.26 6.15l-27.51 27.51 27.51 27.51c3.96 3.96-.27 11.01-5.09 15.83-4.83 4.83-11.87 9.07-15.85 5.11l-27.51-27.51-27.5 27.51c-1.09 1.11-2.43 1.58-3.89 1.58zm31.41-35.11c.66 0 1.3.26 1.77.73l29.27 29.27c.54.53 4.27-.6 8.78-5.11 4.5-4.5 5.62-8.23 5.09-8.77l-29.28-29.27c-.98-.98-.98-2.56 0-3.54l29.28-29.28c.13-.12.15-.62-.04-1.32-1.16-4.33-8.17-11.35-12.5-12.51-.7-.19-1.19-.16-1.32-.04l-29.28 29.28c-.98.98-2.56.98-3.54 0l-29.28-29.28c-.12-.12-.61-.15-1.31.04-4.33 1.16-11.35 8.17-12.52 12.51-.19.7-.16 1.19-.04 1.32l29.29 29.29c.47.47.73 1.1.73 1.77s-.26 1.3-.73 1.77l-29.27 29.27c-.53.53.59 4.25 5.07 8.75 4.52 4.53 8.27 5.66 8.8 5.12l29.27-29.27c.46-.47 1.1-.73 1.76-.73z" fill="#231f20"></path></g><g><path d="m341.28 209.32 29.28-29.28c4.8-4.8-12.6-22.21-17.41-17.4l-29.28 29.28-29.28-29.28c-4.81-4.81-22.21 12.6-17.39 17.4l29.27 29.28-29.27 29.28c-4.81 4.81 12.58 22.21 17.39 17.41l29.28-29.28 29.29 29.27c4.8 4.8 22.21-12.6 17.39-17.41z" fill="#674f27"></path><path d="m292.47 259.34c-3.81 0-8.47-3.19-11.96-6.69-4.82-4.82-9.03-11.86-5.07-15.82l27.51-27.51-27.51-27.51c-.85-.85-2.16-2.79-1.26-6.15 1.61-6.03 10-14.42 16.03-16.04 3.36-.9 5.3.4 6.16 1.25l27.51 27.51 27.51-27.51c.85-.86 2.79-2.16 6.15-1.26 6.03 1.61 14.43 10.01 16.04 16.04.9 3.36-.4 5.29-1.25 6.15l-27.52 27.52 27.5 27.51c.85.85 2.16 2.79 1.26 6.15-1.61 6.03-10.01 14.43-16.04 16.04-3.36.9-5.29-.4-6.15-1.25l-27.51-27.51-27.51 27.51c-1.09 1.1-2.43 1.57-3.89 1.57zm-.07-95.03c-.22 0-.53.04-.9.14-4.33 1.16-11.34 8.17-12.5 12.5-.2.74-.16 1.2-.04 1.32l29.28 29.28c.98.98.98 2.56 0 3.54l-29.27 29.28c-.53.53.58 4.26 5.07 8.76 4.51 4.52 8.25 5.65 8.79 5.11l29.28-29.28c.47-.47 1.1-.73 1.77-.73.66 0 1.3.26 1.77.73l29.28 29.28c.12.12.62.15 1.32-.04 4.33-1.16 11.34-8.17 12.5-12.51.2-.74.16-1.2.04-1.32l-29.27-29.27c-.98-.98-.98-2.56 0-3.54l29.28-29.28c.12-.12.15-.62-.04-1.32-1.16-4.34-8.18-11.35-12.51-12.51-.74-.2-1.2-.16-1.32-.04l-29.28 29.28c-.94.94-2.6.94-3.54 0l-29.28-29.28c-.06-.06-.2-.1-.43-.1z" fill="#231f20"></path></g></g><g><circle cx="256" cy="349.75" fill="#674f27" r="56.25"></circle><path d="m256 408.5c-32.4 0-58.75-26.36-58.75-58.75s26.35-58.75 58.75-58.75 58.75 26.36 58.75 58.75-26.35 58.75-58.75 58.75zm0-112.5c-29.64 0-53.75 24.11-53.75 53.75s24.11 53.75 53.75 53.75 53.75-24.11 53.75-53.75-24.11-53.75-53.75-53.75z" fill="#231f20"></path></g><g><path d="m218.5 331c7.49-14.94 21.48-25 37.49-25 16.03 0 30.02 10.05 37.51 25z" fill="#fff"></path><path d="m293.5 333.5h-75c-.87 0-1.67-.45-2.13-1.19s-.5-1.66-.11-2.43c8.15-16.27 23.38-26.38 39.73-26.38 16.36 0 31.59 10.11 39.74 26.38.39.77.35 1.7-.11 2.43s-1.25 1.19-2.12 1.19zm-70.76-5h66.51c-7.61-12.43-20.04-20-33.26-20-13.21 0-25.63 7.57-33.25 20z" fill="#231f20"></path></g></g></svg>