<?xml version="1.0" encoding="utf-8"?>
<!-- Generator: Adobe Illustrator 22.0.1, SVG Export Plug-In . SVG Version: 6.00 Build 0)  -->
<svg version="1.1" id="Слой_1" xmlns="http://www.w3.org/2000/svg" xmlns:xlink="http://www.w3.org/1999/xlink" x="0px" y="0px"
	 viewBox="0 0 24 24" style="enable-background:new 0 0 24 24;" xml:space="preserve">
<style type="text/css">
	.st0{fill:#90A4AE;}
</style>
<path class="st0" d="M21.8,9.6l-1.7-0.2c-0.1-0.4-0.3-0.9-0.5-1.3l1.1-1.4C21,6.2,21,5.4,20.5,4.9l-1.4-1.4C18.6,3,17.8,3,17.2,3.4
	l-1.4,1.1c-0.4-0.2-0.8-0.4-1.3-0.5l-0.2-1.7C14.3,1.5,13.7,1,13,1H11c-0.7,0-1.3,0.5-1.4,1.2L9.4,3.9C9,4.1,8.5,4.2,8.1,4.5
	L6.8,3.4C6.2,3,5.4,3,4.9,3.5L3.5,4.9C3,5.4,3,6.2,3.4,6.8l1.1,1.4C4.2,8.5,4.1,9,3.9,9.4L2.2,9.6C1.5,9.7,1,10.3,1,11V13
	c0,0.7,0.5,1.3,1.2,1.4l1.7,0.2c0.1,0.4,0.3,0.9,0.5,1.3l-1.1,1.4C3,17.8,3,18.6,3.5,19.1l1.4,1.4C5.4,21,6.2,21,6.8,20.6l1.4-1.1
	c0.4,0.2,0.8,0.4,1.3,0.5l0.2,1.7C9.7,22.5,10.3,23,11,23H13c0.7,0,1.3-0.5,1.4-1.2l0.2-1.7c0.4-0.1,0.9-0.3,1.3-0.5l1.4,1.1
	c0.6,0.4,1.3,0.4,1.8-0.1l1.4-1.4c0.5-0.5,0.5-1.3,0.1-1.8l-1.1-1.4c0.2-0.4,0.4-0.8,0.5-1.3l1.7-0.2c0.7-0.1,1.2-0.7,1.2-1.4V11
	C23,10.3,22.5,9.7,21.8,9.6z"/>
<path d="M12.9,24h-1.7c-0.9,0-1.6-0.6-1.7-1.5l-0.3-2c-0.4-0.1-0.8-0.3-1.1-0.5l-1.6,1.2c-0.7,0.5-1.7,0.5-2.3-0.2l-1.2-1.2
	c-0.6-0.6-0.7-1.6-0.2-2.3L3.9,16c-0.2-0.4-0.3-0.7-0.5-1.1l-1.9-0.3C0.6,14.5,0,13.8,0,12.9v-1.7c0-0.9,0.6-1.6,1.5-1.7l2-0.3
	C3.6,8.7,3.8,8.4,3.9,8L2.7,6.4C2.2,5.7,2.3,4.8,2.9,4.1l1.2-1.2c0.6-0.6,1.6-0.7,2.3-0.2L8,3.9c0.4-0.2,0.7-0.3,1.1-0.5l0.3-1.9
	C9.5,0.6,10.2,0,11.1,0h1.7c0.9,0,1.6,0.6,1.7,1.5l0.3,2c0.4,0.1,0.8,0.3,1.1,0.5l1.6-1.2c0.7-0.5,1.7-0.5,2.3,0.2l1.2,1.2
	c0.6,0.6,0.7,1.6,0.2,2.3L20.1,8c0.2,0.4,0.3,0.7,0.5,1.1l1.9,0.3c0.9,0.1,1.5,0.9,1.5,1.7v1.7c0,0.9-0.6,1.6-1.5,1.7l-2,0.3
	c-0.1,0.4-0.3,0.8-0.5,1.1l1.2,1.6c0.5,0.7,0.5,1.7-0.2,2.3l-1.2,1.2c-0.6,0.6-1.6,0.7-2.3,0.2L16,20.1c-0.4,0.2-0.7,0.3-1.1,0.5
	l-0.3,1.9C14.5,23.4,13.8,24,12.9,24z M7.9,18.4c0.1,0,0.3,0,0.4,0.1c0.5,0.3,1.1,0.5,1.7,0.7c0.3,0.1,0.5,0.3,0.5,0.6l0.3,2.4
	c0,0.1,0.1,0.2,0.3,0.2h1.7c0.1,0,0.2-0.1,0.3-0.2l0.3-2.4c0-0.3,0.3-0.5,0.5-0.6c0.6-0.2,1.2-0.4,1.7-0.7c0.3-0.2,0.6-0.1,0.8,0.1
	l1.9,1.5c0.1,0.1,0.2,0.1,0.3,0l1.2-1.2c0.1-0.1,0.1-0.2,0-0.3l-1.5-1.9c-0.2-0.2-0.2-0.6-0.1-0.8c0.3-0.5,0.5-1.1,0.7-1.7
	c0.1-0.3,0.3-0.5,0.6-0.5l2.4-0.3c0.1,0,0.2-0.1,0.2-0.3v-1.7c0-0.1-0.1-0.2-0.2-0.3l-2.4-0.3c-0.3,0-0.5-0.3-0.6-0.5
	c-0.2-0.6-0.4-1.2-0.7-1.7c-0.2-0.3-0.1-0.6,0.1-0.8l1.5-1.9c0.1-0.1,0.1-0.2,0-0.3L18.8,4c-0.1-0.1-0.2-0.1-0.3,0l-1.9,1.5
	c-0.2,0.2-0.6,0.2-0.8,0.1c-0.5-0.3-1.1-0.5-1.7-0.7c-0.3-0.1-0.5-0.3-0.5-0.6l-0.3-2.4c0-0.1-0.1-0.2-0.3-0.2h-1.7
	c-0.1,0-0.2,0.1-0.3,0.2l-0.3,2.4c0,0.3-0.3,0.5-0.5,0.6C9.4,4.9,8.8,5.2,8.3,5.5C8,5.6,7.7,5.6,7.5,5.4L5.5,3.9
	C5.4,3.9,5.3,3.9,5.2,4L4,5.2c-0.1,0.1-0.1,0.2,0,0.3l1.5,1.9C5.6,7.7,5.6,8,5.5,8.3C5.2,8.8,4.9,9.4,4.8,10
	c-0.1,0.3-0.3,0.5-0.6,0.5l-2.4,0.3c-0.1,0-0.2,0.1-0.2,0.3v1.7c0,0.1,0.1,0.2,0.2,0.3l2.4,0.3c0.3,0,0.5,0.3,0.6,0.5
	c0.2,0.6,0.4,1.2,0.7,1.7c0.2,0.3,0.1,0.6-0.1,0.8l-1.5,1.9c-0.1,0.1-0.1,0.2,0,0.3L5.2,20c0.1,0.1,0.2,0.1,0.3,0l1.9-1.5
	C7.6,18.5,7.8,18.4,7.9,18.4z"/>
<path d="M12,17c-2.8,0-5-2.2-5-5s2.2-5,5-5s5,2.2,5,5S14.8,17,12,17z M12,8.5c-1.9,0-3.5,1.6-3.5,3.5s1.6,3.5,3.5,3.5
	s3.5-1.6,3.5-3.5S13.9,8.5,12,8.5z"/>
</svg>
